#!OML:ASF X:\für Bonn\!DataBase\2005_08_10_Bjorn_Final\c3d\bjorn.ASF
:FULLY-SPECIFIED
:DEGREES
140
root -20.6445 19.3484 -0.457075 -174.738 -88.6756 -186.19
lowerback -3.62027 2.46006 -1.43997
upperback 12.1593 3.24842 -1.85977
thorax 15.5077 1.30359 -0.789252
lowerneck -1.72562 -4.16942 4.00454
upperneck 23.9995 -7.64257 2.88956
head 7.66011 -3.34265 -0.293849
rclavicle 1.35174e-014 -1.03368e-014
rhumerus -21.4453 7.84934 -73.9393
rradius 122.134
rwrist -10.457
rhand -15.8689 7.12576
rfingers 7.12502
rthumb 10.3267 -22.6007
lclavicle 1.35174e-014 -1.03368e-014
lhumerus -18.4099 0.606017 86.5974
lradius 19.6285
lwrist -34.0466
lhand -16.8642 -4.54892
lfingers 7.12502
lthumb 9.36633 25.223
rfemur -7.48893 -7.94612 15.8055
rtibia 26.2531
rfoot -11.2669 17.5664
rtoes 2.24369
lfemur -6.9515 10.9666 -16.3209
ltibia 24.8742
lfoot -10.1029 -8.50334
ltoes -4.65956
141
root -20.6146 19.3394 -0.455026 -172.234 -88.4907 -189.113
lowerback -2.99786 2.4157 -1.17003
upperback 12.6761 3.07377 -1.66763
thorax 15.7497 1.21661 -0.778583
lowerneck -1.88626 -4.15313 4.01579
upperneck 23.6344 -7.55143 2.78277
head 7.56012 -3.30513 -0.321714
rclavicle 1.8487e-014 -5.56597e-015
rhumerus -22.3177 8.52996 -74.7065
rradius 121.102
rwrist -10.3288
rhand -15.6937 7.24706
rfingers 7.12502
rthumb 10.4956 -22.4709
lclavicle 1.8487e-014 -5.56597e-015
lhumerus -18.0244 -0.436481 87.0039
lradius 20.0527
lwrist -33.7505
lhand -17.1429 -4.68057
lfingers 7.12502
lthumb 9.09748 25.1032
rfemur -7.2271 -7.6841 15.6782
rtibia 26.4232
rfoot -11.3977 17.445
rtoes 2.05725
lfemur -6.57045 10.6591 -16.4022
ltibia 24.9201
lfoot -10.2006 -8.03225
ltoes -5.06843
142
root -20.5828 19.3286 -0.452982 -170.153 -88.2646 -191.613
lowerback -2.37065 2.37891 -0.958701
upperback 13.2085 2.90696 -1.43795
thorax 16.0064 1.12081 -0.690636
lowerneck -2.01129 -4.13741 3.96745
upperneck 23.1677 -7.44528 2.69088
head 7.42302 -3.26616 -0.330856
rclavicle -4.25399e-014 3.37934e-014
rhumerus -23.044 9.17686 -75.3935
rradius 119.9
rwrist -10.2247
rhand -15.5386 7.37458
rfingers 7.12502
rthumb 10.6452 -22.3358
lclavicle -4.25399e-014 3.37934e-014
lhumerus -17.6169 -1.23192 87.4198
lradius 20.4353
lwrist -33.8114
lhand -17.5551 -4.94245
lfingers 7.12502
lthumb 8.69966 24.8583
rfemur -6.98975 -7.44233 15.5345
rtibia 26.6103
rfoot -11.5003 17.3802
rtoes 1.88029
lfemur -6.20528 10.4259 -16.4977
ltibia 24.9803
lfoot -10.2953 -7.5966
ltoes -5.44322
143
root -20.55 19.3189 -0.450792 -168.6 -88.0449 -193.579
lowerback -1.73433 2.32947 -0.757854
upperback 13.7443 2.71847 -1.20115
thorax 16.2654 1.01088 -0.590709
lowerneck -2.11767 -4.11283 3.95179
upperneck 22.6362 -7.31445 2.55832
head 7.25944 -3.21733 -0.355037
rclavicle -2.70347e-014 1.11319e-014
rhumerus -23.5922 9.81642 -76.0457
rradius 118.5
rwrist -10.2008
rhand -15.2897 7.35639
rfingers 7.12502
rthumb 10.8853 -22.3415
lclavicle -2.70347e-014 1.11319e-014
lhumerus -17.1862 -2.00431 87.8252
lradius 20.7668
lwrist -34.0053
lhand -18.1033 -5.23925
lfingers 7.12502
lthumb 8.17064 24.5828
rfemur -6.76499 -7.16695 15.3982
rtibia 26.8071
rfoot -11.6065 17.2849
rtoes 1.85605
lfemur -5.85448 10.2205 -16.5913
ltibia 25.0524
lfoot -10.3676 -7.19765
ltoes -5.64603
144
root -20.5161 19.308 -0.448348 -167.853 -87.8197 -194.739
lowerback -1.06425 2.27361 -0.552908
upperback 14.2696 2.51506 -0.954506
thorax 16.4937 0.892043 -0.482971
lowerneck -2.16906 -4.09073 3.90396
upperneck 22.034 -7.18118 2.44602
head 7.06607 -3.1704 -0.364392
rclavicle -1.5704e-014 -3.77691e-015
rhumerus -23.9732 10.4161 -76.6713
rradius 116.933
rwrist -10.2253
rhand -14.8846 7.09135
rfingers 7.12502
rthumb 11.2761 -22.5856
lclavicle -1.5704e-014 -3.77691e-015
lhumerus -16.8035 -2.66024 88.2048
lradius 21.1122
lwrist -34.5294
lhand -18.785 -5.54586
lfingers 7.12502
lthumb 7.51271 24.3007
rfemur -6.55074 -6.93884 15.2775
rtibia 27.0071
rfoot -11.7036 17.2216
rtoes 1.72085
lfemur -5.52339 10.0244 -16.6726
ltibia 25.1449
lfoot -10.4671 -6.80074
ltoes -6.05175
145
root -20.4812 19.2976 -0.446159 -167.384 -87.5799 -195.615
lowerback -0.342304 2.22813 -0.338983
upperback 14.7605 2.32365 -0.711029
thorax 16.6493 0.780051 -0.380666
lowerneck -2.14897 -4.06831 3.8799
upperneck 21.4125 -7.04667 2.32245
head 6.85447 -3.12368 -0.378912
rclavicle 8.94531e-016 -7.45443e-015
rhumerus -24.2226 10.98 -77.2182
rradius 115.172
rwrist -10.3566
rhand -14.5259 6.77753
rfingers 7.12502
rthumb 11.6219 -22.8802
lclavicle 8.94531e-016 -7.45443e-015
lhumerus -16.4769 -3.11577 88.5549
lradius 21.4357
lwrist -35.4982
lhand -19.5452 -5.7818
lfingers 7.12502
lthumb 6.77883 24.0897
rfemur -6.35025 -6.71701 15.159
rtibia 27.2091
rfoot -11.7966 17.1715
rtoes 1.49596
lfemur -5.19977 9.81817 -16.7593
ltibia 25.2468
lfoot -10.5614 -6.37942
ltoes -6.39015
146
root -20.4449 19.2869 -0.443176 -167.649 -87.3462 -195.736
lowerback 0.407278 2.18089 -0.0709903
upperback 15.2241 2.12636 -0.480013
thorax 16.7596 0.673372 -0.321045
lowerneck -2.06466 -4.04498 3.85524
upperneck 20.7612 -6.91827 2.24155
head 6.62563 -3.07841 -0.37808
rclavicle -3.32964e-015 6.11263e-015
rhumerus -24.2997 11.5183 -77.7359
rradius 113.14
rwrist -10.5318
rhand -14.3814 6.79092
rfingers 7.12502
rthumb 11.7613 -22.8589
lclavicle -3.32964e-015 6.11263e-015
lhumerus -16.1849 -3.52016 88.8661
lradius 21.7496
lwrist -36.7016
lhand -20.3774 -5.96958
lfingers 7.12502
lthumb 5.97548 23.9262
rfemur -6.17475 -6.49499 15.0737
rtibia 27.41
rfoot -11.8503 17.1522
rtoes 1.51037
lfemur -4.92075 9.67411 -16.8134
ltibia 25.3667
lfoot -10.6165 -6.0314
ltoes -6.53036
147
root -20.4073 19.2766 -0.440171 -167.983 -87.1061 -195.789
lowerback 1.18399 2.1317 0.196004
upperback 15.6868 1.92359 -0.24356
thorax 16.8554 0.561531 -0.253342
lowerneck -1.94991 -4.01667 3.83832
upperneck 20.0661 -6.77499 2.12885
head 6.37778 -3.02838 -0.386374
rclavicle 1.59028e-014 2.33572e-015
rhumerus -24.1776 12.0159 -78.1657
rradius 110.895
rwrist -10.6345
rhand -14.4086 7.06885
rfingers 7.12502
rthumb 11.7351 -22.5824
lclavicle 1.59028e-014 2.33572e-015
lhumerus -15.8713 -3.65224 89.1651
lradius 22.017
lwrist -38.2436
lhand -21.2622 -6.10013
lfingers 7.12502
lthumb 5.12115 23.818
rfemur -6.01516 -6.29669 14.9899
rtibia 27.6177
rfoot -11.9006 17.1418
rtoes 1.5205
lfemur -4.64508 9.54811 -16.865
ltibia 25.49
lfoot -10.6883 -5.68114
ltoes -6.84319
148
root -20.3689 19.2657 -0.436642 -168.307 -86.8651 -195.845
lowerback 1.97963 2.09779 0.508508
upperback 16.1417 1.74116 -0.0310905
thorax 16.9373 0.466906 -0.232674
lowerneck -1.78429 -4.00769 3.94423
upperneck 19.3354 -6.65935 1.975
head 6.10681 -2.98723 -0.427426
rclavicle -7.95139e-016 2.00773e-014
rhumerus -23.901 12.4085 -78.5639
rradius 108.529
rwrist -10.7626
rhand -14.4503 7.26791
rfingers 7.12502
rthumb 11.6949 -22.3857
lclavicle -7.95139e-016 2.00773e-014
lhumerus -15.5723 -3.81454 89.4238
lradius 22.2821
lwrist -39.8393
lhand -22.1784 -6.21697
lfingers 7.12502
lthumb 4.23648 23.7206
rfemur -5.86396 -6.10193 14.9104
rtibia 27.8222
rfoot -11.9424 17.1264
rtoes 1.50586
lfemur -4.38929 9.44272 -16.9181
ltibia 25.6312
lfoot -10.7582 -5.35022
ltoes -7.08164
